<svg width="32" height="28" viewBox="0 0 32 28" fill="none" xmlns="http://www.w3.org/2000/svg">
<path opacity="0.4" d="M25.4932 10.64C24.9732 10.64 24.5599 11.0016 24.5599 11.4566V13.3C24.5599 17.43 20.7199 20.79 15.9999 20.79C11.2799 20.79 7.43991 17.43 7.43991 13.3V11.445C7.43991 10.99 7.02658 10.6283 6.50658 10.6283C5.98658 10.6283 5.57324 10.99 5.57324 11.445V13.2883C5.57324 18.0366 9.74658 21.945 15.0666 22.365V24.85C15.0666 25.305 15.4799 25.6666 15.9999 25.6666C16.5199 25.6666 16.9332 25.305 16.9332 24.85V22.365C22.2399 21.9566 26.4266 18.0366 26.4266 13.2883V11.445C26.4132 11.0016 25.9999 10.64 25.4932 10.64Z" fill="#DC5F00"/>
<path opacity="0.72" d="M16 2.33337C12.7467 2.33337 10.1067 4.64337 10.1067 7.49004V13.4634C10.1067 16.31 12.7467 18.62 16 18.62C19.2534 18.62 21.8934 16.31 21.8934 13.4634V7.49004C21.8934 4.64337 19.2534 2.33337 16 2.33337ZM17.7467 10.4417C17.6534 10.745 17.3467 10.9434 17 10.9434C16.9334 10.9434 16.8667 10.9317 16.8 10.92C16.28 10.7917 15.7334 10.7917 15.2134 10.92C14.7867 11.025 14.3734 10.8034 14.2667 10.4417C14.1467 10.08 14.4 9.70671 14.8134 9.61337C15.6 9.42671 16.4267 9.42671 17.2134 9.61337C17.6134 9.70671 17.8534 10.08 17.7467 10.4417ZM18.4534 8.17837C18.3334 8.45837 18.04 8.62171 17.72 8.62171C17.6267 8.62171 17.5467 8.61004 17.4534 8.58671C16.52 8.28337 15.48 8.28337 14.5467 8.58671C14.1467 8.71504 13.6934 8.52837 13.5467 8.17837C13.4 7.82837 13.6134 7.43171 14.0134 7.31504C15.2934 6.90671 16.7067 6.90671 17.9867 7.31504C18.3867 7.44337 18.6 7.82837 18.4534 8.17837Z" fill="#DC5F00"/>
</svg>
